<svg width="40" height="40" viewBox="0 0 40 40" fill="none" xmlns="http://www.w3.org/2000/svg">
<path d="M34 0H6C2.69922 0 0 2.7002 0 6V34C0 37.2998 2.69922 40 6 40H34C37.3008 40 40 37.2998 40 34V6C40 2.7002 37.3008 0 34 0ZM28.9199 16.4199L18.9199 26.4199C18.5195 26.7998 18.0195 27 17.5 27C16.9805 27 16.4805 26.7998 16.0801 26.4199L11.0801 21.4199C10.3008 20.6396 10.3008 19.3603 11.0801 18.5801C11.8594 17.7998 13.1406 17.7998 13.9199 18.5801L17.5 22.1797L26.0801 13.5801C26.8594 12.7998 28.1406 12.7998 28.9199 13.5801C29.6992 14.3604 29.6992 15.6396 28.9199 16.4199Z" fill="#25D366"/>
</svg>
