<svg width="559" height="200" viewBox="0 0 559 200" fill="none" xmlns="http://www.w3.org/2000/svg">
<path d="M413.741 192.042C395.017 192.042 378.413 187.975 363.928 179.841C349.62 171.53 338.403 160.212 330.277 145.889C322.151 131.388 318.089 114.766 318.089 96.0212C318.089 82.0513 320.385 69.2308 324.978 57.5597C329.747 45.7118 336.283 35.5438 344.585 27.0557C353.064 18.3908 363.044 11.7595 374.526 7.16179C386.185 2.38726 398.992 0 412.946 0C431.671 0 448.099 4.15561 462.23 12.4668C476.538 20.6012 487.755 31.9187 495.881 46.4191C504.007 60.7427 508.069 77.3652 508.069 96.2865C508.069 114.854 504.007 131.388 495.881 145.889C487.932 160.212 476.803 171.53 462.495 179.841C448.364 187.975 432.112 192.042 413.741 192.042ZM483.163 200L414.801 130.504L438.118 108.488L505.95 177.454L483.163 200ZM413.741 158.886C425.047 158.886 434.939 156.233 443.418 150.928C452.073 145.447 458.786 138.019 463.555 128.647C468.501 119.275 470.974 108.4 470.974 96.0212C470.974 83.8196 468.501 73.0327 463.555 63.6605C458.609 54.1114 451.808 46.6843 443.153 41.3793C434.497 35.8974 424.428 33.1565 412.946 33.1565C401.818 33.1565 391.837 35.8974 383.005 41.3793C374.35 46.6843 367.549 54.1114 362.603 63.6605C357.657 73.0327 355.184 83.8196 355.184 96.0212C355.184 108.4 357.657 119.275 362.603 128.647C367.549 138.019 374.438 145.447 383.27 150.928C392.102 156.233 402.259 158.886 413.741 158.886Z" fill="url(#paint0_linear_444_4)"/>
<path d="M292.381 188.859L221.37 3.18243H257.67L330.801 188.859H292.381ZM145.854 188.859L218.985 3.18243H255.285L184.274 188.859H145.854ZM180.3 148.01V115.915H296.62V148.01H180.3Z" fill="url(#paint1_linear_444_4)"/>
<path d="M49.2518 188.859V3.18226H168.222V36.3388H85.5522V80.9011H154.443V114.058H85.5522V188.859H49.2518Z" fill="url(#paint2_linear_444_4)"/>
<path d="M0 137.631V106.145H11.6822C13.8988 106.145 15.8608 106.594 17.5682 107.494C19.2756 108.364 20.6086 109.593 21.5671 111.182C22.5256 112.742 23.0049 114.556 23.0049 116.625C23.0049 118.664 22.5406 120.478 21.612 122.067C20.6834 123.657 19.4104 124.916 17.7929 125.846C16.1753 126.745 14.3032 127.195 12.1764 127.195H6.15561V137.631H0ZM6.15561 121.528H12.0416C13.4195 121.528 14.5428 121.078 15.4115 120.178C16.3101 119.249 16.7594 118.064 16.7594 116.625C16.7594 115.186 16.2652 114.016 15.2767 113.116C14.3182 112.217 13.0751 111.767 11.5474 111.767H6.15561V121.528Z" fill="black"/>
<path d="M27.073 137.631V106.145H46.9776V111.767H33.2286V118.919H45.0905V124.406H33.2286V132.008H47.1573V137.631H27.073Z" fill="black"/>
<path d="M53.5316 137.631V106.145H65.2138C67.4304 106.145 69.3924 106.579 71.0998 107.449C72.8072 108.319 74.1402 109.518 75.0987 111.047C76.0573 112.547 76.5365 114.301 76.5365 116.31C76.5365 118.289 76.0273 120.058 75.0089 121.618C74.0204 123.147 72.6574 124.346 70.9201 125.216C69.1827 126.056 67.2058 126.476 64.9891 126.476H59.6872V137.631H53.5316ZM70.8302 137.631L63.5513 124.991L68.2691 121.618L77.7946 137.631H70.8302ZM59.6872 120.853H65.2587C66.1873 120.853 67.0111 120.658 67.73 120.268C68.4788 119.878 69.0629 119.339 69.4823 118.649C69.9316 117.959 70.1563 117.18 70.1563 116.31C70.1563 114.961 69.662 113.866 68.6735 113.027C67.715 112.187 66.4719 111.767 64.9442 111.767H59.6872V120.853Z" fill="black"/>
<path d="M97.0941 138.17C93.889 138.17 91.0433 137.481 88.5571 136.101C86.1008 134.692 84.1688 132.773 82.7609 130.344C81.3531 127.885 80.6492 125.066 80.6492 121.888C80.6492 118.709 81.3531 115.905 82.7609 113.476C84.1688 111.017 86.1008 109.098 88.5571 107.719C91.0433 106.31 93.889 105.605 97.0941 105.605C99.0112 105.605 100.778 105.89 102.396 106.459C104.014 107.029 105.436 107.824 106.664 108.843C107.923 109.833 108.971 110.972 109.81 112.262L104.777 115.41C104.268 114.601 103.594 113.881 102.755 113.251C101.947 112.622 101.048 112.127 100.06 111.767C99.0711 111.407 98.0826 111.227 97.0941 111.227C95.1171 111.227 93.3648 111.692 91.8371 112.622C90.3094 113.521 89.1113 114.766 88.2426 116.355C87.3739 117.944 86.9396 119.788 86.9396 121.888C86.9396 123.957 87.3589 125.801 88.1976 127.42C89.0663 129.039 90.2795 130.314 91.8371 131.243C93.3947 132.143 95.192 132.593 97.2289 132.593C98.8165 132.593 100.224 132.278 101.452 131.648C102.711 131.018 103.699 130.134 104.418 128.994C105.137 127.855 105.496 126.535 105.496 125.036L111.337 124.137C111.337 127.105 110.723 129.639 109.495 131.738C108.297 133.837 106.62 135.442 104.463 136.551C102.336 137.631 99.8798 138.17 97.0941 138.17ZM98.1275 125.576V120.763H111.337V124.586L108.012 125.576H98.1275Z" fill="black"/>
<path d="M128.194 138.26C125.588 138.26 123.326 137.75 121.409 136.731C119.492 135.711 118.01 134.287 116.961 132.458C115.943 130.599 115.433 128.41 115.433 125.891V106.145H121.589V125.891C121.589 127.24 121.859 128.425 122.398 129.444C122.967 130.434 123.746 131.198 124.734 131.738C125.753 132.278 126.936 132.548 128.284 132.548C129.632 132.548 130.8 132.278 131.789 131.738C132.807 131.198 133.586 130.434 134.125 129.444C134.694 128.425 134.979 127.24 134.979 125.891V106.145H141.134V125.891C141.134 128.41 140.595 130.599 139.517 132.458C138.468 134.287 136.971 135.711 135.024 136.731C133.107 137.75 130.83 138.26 128.194 138.26Z" fill="black"/>
<path d="M147.519 137.631V106.145H153.944L169.311 127.285V106.145H175.422V137.631H169.311L153.675 116.085V137.631H147.519Z" fill="black"/>
<path d="M188.921 137.631V111.767H179.485V106.145H204.467V111.767H195.076V137.631H188.921Z" fill="black"/>
<path d="M227.406 137.631L215.364 106.145H221.52L233.921 137.631H227.406ZM202.559 137.631L214.96 106.145H221.115L209.074 137.631H202.559ZM208.4 130.704V125.261H228.125V130.704H208.4Z" fill="black"/>
<path d="M248.248 138.17C246.66 138.17 245.178 137.975 243.8 137.586C242.422 137.196 241.194 136.656 240.115 135.966C239.037 135.247 238.138 134.452 237.42 133.582C236.731 132.713 236.281 131.798 236.072 130.839L242.092 129.039C242.482 130.059 243.171 130.944 244.159 131.693C245.148 132.413 246.391 132.788 247.889 132.818C249.476 132.848 250.764 132.503 251.753 131.783C252.771 131.063 253.28 130.134 253.28 128.994C253.28 128.005 252.876 127.18 252.067 126.52C251.288 125.831 250.21 125.306 248.832 124.946L244.743 123.867C243.216 123.477 241.868 122.892 240.7 122.112C239.531 121.303 238.618 120.313 237.959 119.144C237.3 117.974 236.97 116.61 236.97 115.051C236.97 112.082 237.944 109.773 239.891 108.124C241.868 106.444 244.654 105.605 248.248 105.605C250.255 105.605 252.007 105.905 253.505 106.504C255.033 107.074 256.306 107.899 257.324 108.978C258.343 110.058 259.121 111.332 259.661 112.802L253.685 114.646C253.325 113.626 252.666 112.757 251.708 112.037C250.749 111.317 249.536 110.957 248.068 110.957C246.571 110.957 245.387 111.302 244.519 111.992C243.68 112.682 243.261 113.656 243.261 114.916C243.261 115.905 243.59 116.685 244.249 117.255C244.938 117.824 245.867 118.259 247.035 118.559L251.169 119.594C253.864 120.253 255.961 121.438 257.459 123.147C258.957 124.856 259.706 126.76 259.706 128.859C259.706 130.719 259.256 132.353 258.358 133.762C257.459 135.142 256.156 136.221 254.449 137.001C252.741 137.78 250.674 138.17 248.248 138.17Z" fill="black"/>
<path d="M275.688 137.631V106.145H295.862V111.767H281.843V119.324H293.526V124.946H281.843V137.631H275.688Z" fill="black"/>
<path d="M300.567 137.631V106.145H312.249C314.466 106.145 316.428 106.579 318.135 107.449C319.842 108.319 321.175 109.518 322.134 111.047C323.093 112.547 323.572 114.301 323.572 116.31C323.572 118.289 323.063 120.058 322.044 121.618C321.056 123.147 319.693 124.346 317.955 125.216C316.218 126.056 314.241 126.476 312.024 126.476H306.723V137.631H300.567ZM317.866 137.631L310.587 124.991L315.304 121.618L324.83 137.631H317.866ZM306.723 120.853H312.294C313.223 120.853 314.046 120.658 314.765 120.268C315.514 119.878 316.098 119.339 316.518 118.649C316.967 117.959 317.192 117.18 317.192 116.31C317.192 114.961 316.697 113.866 315.709 113.027C314.75 112.187 313.507 111.767 311.979 111.767H306.723V120.853Z" fill="black"/>
<path d="M329.527 137.631V106.145H349.431V111.767H335.682V118.919H347.544V124.406H335.682V132.008H349.611V137.631H329.527Z" fill="black"/>
<path d="M370.363 138.17C367.188 138.17 364.372 137.481 361.916 136.101C359.49 134.692 357.588 132.773 356.21 130.344C354.832 127.885 354.143 125.066 354.143 121.888C354.143 119.519 354.532 117.345 355.311 115.365C356.12 113.356 357.228 111.632 358.636 110.193C360.074 108.723 361.766 107.599 363.713 106.819C365.69 106.01 367.862 105.605 370.229 105.605C373.404 105.605 376.189 106.31 378.586 107.719C381.012 109.098 382.914 111.017 384.292 113.476C385.67 115.905 386.359 118.724 386.359 121.933C386.359 125.081 385.67 127.885 384.292 130.344C382.944 132.773 381.057 134.692 378.631 136.101C376.234 137.481 373.479 138.17 370.363 138.17ZM382.135 139.52L370.543 127.735L374.497 124.002L385.999 135.696L382.135 139.52ZM370.363 132.548C372.28 132.548 373.958 132.098 375.396 131.198C376.863 130.269 378.002 129.009 378.81 127.42C379.649 125.831 380.069 123.987 380.069 121.888C380.069 119.818 379.649 117.989 378.81 116.4C377.972 114.781 376.819 113.521 375.351 112.622C373.883 111.692 372.176 111.227 370.229 111.227C368.341 111.227 366.649 111.692 365.151 112.622C363.684 113.521 362.53 114.781 361.692 116.4C360.853 117.989 360.434 119.818 360.434 121.888C360.434 123.987 360.853 125.831 361.692 127.42C362.53 129.009 363.699 130.269 365.196 131.198C366.694 132.098 368.416 132.548 370.363 132.548Z" fill="black"/>
<path d="M403.75 138.26C401.144 138.26 398.883 137.75 396.966 136.731C395.049 135.711 393.566 134.287 392.517 132.458C391.499 130.599 390.99 128.41 390.99 125.891V106.145H397.145V125.891C397.145 127.24 397.415 128.425 397.954 129.444C398.523 130.434 399.302 131.198 400.291 131.738C401.309 132.278 402.492 132.548 403.84 132.548C405.188 132.548 406.356 132.278 407.345 131.738C408.363 131.198 409.142 130.434 409.681 129.444C410.25 128.425 410.535 127.24 410.535 125.891V106.145H416.69V125.891C416.69 128.41 416.151 130.599 415.073 132.458C414.025 134.287 412.527 135.711 410.58 136.731C408.663 137.75 406.386 138.26 403.75 138.26Z" fill="black"/>
<path d="M423.075 137.631V106.145H442.98V111.767H429.231V118.919H441.093V124.406H429.231V132.008H443.16V137.631H423.075Z" fill="black"/>
<path d="M449.534 137.631V106.145H455.959L471.326 127.285V106.145H477.436V137.631H471.326L455.69 116.085V137.631H449.534Z" fill="black"/>
<path d="M490.936 137.631V111.767H481.5V106.145H506.482V111.767H497.091V137.631H490.936Z" fill="black"/>
<path d="M510.525 137.631V106.145H530.43V111.767H516.681V118.919H528.542V124.406H516.681V132.008H530.609V137.631H510.525Z" fill="black"/>
<path d="M547.542 138.17C545.955 138.17 544.472 137.975 543.094 137.586C541.716 137.196 540.488 136.656 539.41 135.966C538.331 135.247 537.433 134.452 536.714 133.582C536.025 132.713 535.576 131.798 535.366 130.839L541.387 129.039C541.776 130.059 542.465 130.944 543.454 131.693C544.442 132.413 545.685 132.788 547.183 132.818C548.771 132.848 550.059 132.503 551.047 131.783C552.066 131.063 552.575 130.134 552.575 128.994C552.575 128.005 552.17 127.18 551.362 126.52C550.583 125.831 549.504 125.306 548.127 124.946L544.038 123.867C542.51 123.477 541.162 122.892 539.994 122.112C538.826 121.303 537.912 120.313 537.253 119.144C536.594 117.974 536.265 116.61 536.265 115.051C536.265 112.082 537.238 109.773 539.185 108.124C541.162 106.444 543.948 105.605 547.542 105.605C549.549 105.605 551.302 105.905 552.799 106.504C554.327 107.074 555.6 107.899 556.619 108.978C557.637 110.058 558.416 111.332 558.955 112.802L552.979 114.646C552.62 113.626 551.961 112.757 551.002 112.037C550.044 111.317 548.83 110.957 547.363 110.957C545.865 110.957 544.682 111.302 543.813 111.992C542.974 112.682 542.555 113.656 542.555 114.916C542.555 115.905 542.885 116.685 543.544 117.255C544.233 117.824 545.161 118.259 546.329 118.559L550.463 119.594C553.159 120.253 555.256 121.438 556.753 123.147C558.251 124.856 559 126.76 559 128.859C559 130.719 558.551 132.353 557.652 133.762C556.753 135.142 555.45 136.221 553.743 137.001C552.036 137.78 549.969 138.17 547.542 138.17Z" fill="black"/>
<defs>
<linearGradient id="paint0_linear_444_4" x1="72.4734" y1="3.18226" x2="72.4734" y2="188.859" gradientUnits="userSpaceOnUse">
<stop stop-color="#CC0000"/>
<stop offset="0.927698" stop-color="white"/>
</linearGradient>
<linearGradient id="paint1_linear_444_4" x1="72.4734" y1="3.18226" x2="72.4734" y2="188.859" gradientUnits="userSpaceOnUse">
<stop stop-color="#CC0000"/>
<stop offset="0.927698" stop-color="white"/>
</linearGradient>
<linearGradient id="paint2_linear_444_4" x1="72.4734" y1="3.18226" x2="72.4734" y2="188.859" gradientUnits="userSpaceOnUse">
<stop stop-color="#CC0000"/>
<stop offset="0.927698" stop-color="white"/>
</linearGradient>
</defs>
</svg>
