<?xml version="1.0" encoding="UTF-8"?>
<svg id="Camada_2" xmlns="http://www.w3.org/2000/svg" version="1.1" viewBox="0 0 512 512">
  <!-- Generator: Adobe Illustrator 30.2.1, SVG Export Plug-In . SVG Version: 2.1.1 Build 1)  -->
  <defs>
    <style>
      .st0 {
        fill: #c00;
      }
    </style>
  </defs>
  <rect x="0" width="512" height="512"/>
  <path class="st0" d="M434,265.9c-4.2-91.7-77.8-165.4-169.6-169.6v-25.7h-16.9v25.7c-91.7,4.2-165.4,77.8-169.6,169.6h-25.7v16.9h60.6c4.2,72.4,62.2,130.5,134.6,134.6v23.9h16.9v-23.9c72.4-4.2,130.5-62.2,134.6-134.6h60.6v-16.9h-25.7ZM264.5,217.7v-18.9c35.3,3.9,63.2,31.8,67.1,67.1h-32.7c-3.9-20.1-21.5-35.3-42.9-35.3s-39,15.2-42.9,35.3h-32.5c3.9-35.3,31.7-63.2,66.9-67.1v18.9h16.9ZM247.5,131.3v32.7c-54.3,4.2-97.8,47.4-101.9,101.9h-32.7c4.2-72.5,62.2-130.5,134.6-134.6ZM247.5,384.7c-54.3-4.2-97.8-47.6-101.9-101.9h35c3.9,35.3,31.7,63.1,66.9,66.9v35ZM256,318.1c-21.2,0-38.8-15.2-42.9-35.3h24.8c3,6.9,10,11.6,18.1,11.6s15.1-4.7,18.1-11.6h24.8c-3.9,20.1-21.5,35.3-42.9,35.3ZM264.5,384.7v-35c35.3-3.9,63.2-31.7,67.1-66.9h34.8c-4.2,54.3-47.4,97.8-101.9,101.9ZM366.4,265.9c-4.2-54.5-47.4-97.8-101.9-101.9v-32.7c72.4,4.2,130.5,62.1,134.6,134.6,0,0-32.7,0-32.7,0Z"/>
</svg>