<svg width="244" height="206" viewBox="0 0 244 206" fill="none" xmlns="http://www.w3.org/2000/svg">
<path d="M123.223 2.25732C178.862 2.933 223.414 48.5869 222.738 104.224C222.063 159.863 176.409 204.416 120.773 203.74C65.134 203.064 20.582 157.41 21.2577 101.774C21.9347 46.1342 67.5882 1.58163 123.223 2.25732Z" fill="url(#paint0_linear_2507_107)"/>
<path d="M74.0771 62.3643C72.9455 63.7005 71.851 64.6372 70.7908 65.1714C69.7306 65.707 68.6429 65.8498 67.5264 65.6012C66.4099 65.3527 65.2041 64.7196 63.909 63.6978C63.1537 63.1031 62.2995 62.4151 61.3492 61.6337C60.3988 60.8522 59.4251 60.0406 58.4295 59.1974C57.4338 58.3541 56.478 57.5356 55.5634 56.7377C54.6487 55.9412 53.8481 55.2298 53.1628 54.6049C51.9048 53.4513 51.0465 52.3307 50.5864 51.2444C50.1264 50.158 50.0632 49.0415 50.3983 47.892C50.7334 46.7439 51.4612 45.5052 52.586 44.1771C54.2189 42.2462 55.8133 41.1819 57.3679 40.9828C58.9225 40.7836 60.6872 41.4222 62.6621 42.8986C63.0864 43.2131 63.5753 43.6045 64.1301 44.0728C64.685 44.5425 65.156 44.9641 65.5447 45.3376L62.2185 49.2695C61.6637 48.7559 61.1157 48.2697 60.5746 47.811C60.0335 47.3523 59.4622 46.8922 58.8634 46.4308C58.2661 45.9858 57.7305 45.7991 57.258 45.8705C56.7856 45.9419 56.294 46.2797 55.7831 46.8826C55.2502 47.5116 54.9852 48.0706 54.9852 48.5567C54.9852 49.0443 55.2502 49.5496 55.7817 50.0743C56.6551 50.9024 57.5849 51.7566 58.5709 52.6369C59.5583 53.5172 60.5705 54.3962 61.6101 55.2765C62.6497 56.1568 63.6852 57.0096 64.7166 57.8378C65.7479 58.6659 66.7436 59.4404 67.7063 60.1642C68.3202 60.6078 68.8695 60.7918 69.3543 60.7149C69.8391 60.638 70.3472 60.285 70.88 59.6561C71.4349 59.001 71.7164 58.4187 71.7274 57.9105C71.7384 57.4024 71.4774 56.8778 70.9446 56.3381C70.7578 56.1513 70.5257 55.9343 70.2456 55.6899C69.9654 55.4454 69.6811 55.2051 69.3941 54.9688C69.1071 54.7326 68.8544 54.539 68.6388 54.3866L67.4193 55.8286L64.012 52.9459L68.4699 47.6778C69.3021 48.3068 70.1879 49.0264 71.1286 49.8381C72.0693 50.6483 72.9222 51.416 73.6899 52.1398C75.5027 53.8235 76.4365 55.4578 76.4914 57.0398C76.5464 58.6233 75.7416 60.3977 74.0785 62.3629L74.0771 62.3643Z" fill="black"/>
<path d="M79.5512 55.5017L67.1625 30.6937L74.4109 25.7236L93.0853 46.2207L88.725 49.2104L85.0019 44.8116L81.1511 47.4526L83.9115 52.5106L79.5512 55.5003V55.5017ZM78.984 43.4438L82.0424 41.3467L78.0969 36.6842L74.0291 31.4806L72.6695 32.4131L76.0575 38.0823L78.984 43.4438Z" fill="black"/>
<path d="M94.758 45.5574L85.7861 19.5985L92.3726 17.3215C94.7951 16.4837 96.7137 16.3684 98.1282 16.9754C99.5427 17.5824 100.678 19.0025 101.535 21.2369C101.766 21.8357 101.963 22.3603 102.126 22.8135C102.288 23.2653 102.446 23.7199 102.597 24.1758C102.748 24.6318 102.918 25.1674 103.106 25.7799C103.549 27.2013 103.712 28.4345 103.595 29.4797C103.479 30.5248 103.053 31.4408 102.32 32.2263L108.678 40.7452L103.518 42.5278L98.0252 34.6187L96.5969 35.1117L99.6251 43.8723L94.758 45.5546V45.5574ZM95.1165 30.8297L96.8359 30.235C97.5171 30.0002 97.9771 29.6651 98.2147 29.2311C98.4523 28.7985 98.4907 28.2945 98.3287 27.7204C98.1776 27.1793 98.0073 26.6176 97.8192 26.0353C97.6297 25.453 97.4305 24.8749 97.219 24.2994C97.0075 23.724 96.7947 23.1774 96.5791 22.6583C96.3484 22.0966 96.0064 21.7203 95.5546 21.5321C95.1014 21.344 94.5356 21.3673 93.853 21.6022L92.1336 22.1968L95.1165 30.8283V30.8297Z" fill="black"/>
<path d="M109.685 40.4856L111.723 12.832L120.494 12.2676L126.062 39.4323L120.785 39.7715L119.835 34.0872L115.175 34.3866L114.961 40.1464L109.685 40.4856ZM115.363 29.8326L119.063 29.595L118.056 23.5702L117.222 17.018L115.578 17.1237L115.59 23.7281L115.363 29.8326Z" fill="black"/>
<path d="M127.734 39.4542L133.973 12.7071L142.231 14.6339L142.249 23.6279L140.867 37.8653L142.406 38.2237L144.004 27.1395L146.278 15.5773L151.327 16.7557L145.088 43.5028L136.429 41.4826L136.466 32.2552L138.269 18.3281L136.664 17.9532L134.709 30.2597L132.75 40.6257L127.734 39.4556V39.4542Z" fill="black"/>
<path d="M150.379 46.4844L161.514 26.435L157.357 24.1264L159.557 20.1643L172.373 27.2823L170.173 31.2444L166.016 28.9358L154.881 48.9852L150.379 46.4844Z" fill="black"/>
<path d="M160.277 52.674L177.793 31.5204L181.76 34.8055L164.243 55.959L160.277 52.674Z" fill="black"/>
<path d="M166.153 57.0852L189.958 42.8656L195.46 49.7199L176.426 69.8833L173.116 65.7606L177.222 61.7161L174.3 58.074L169.463 61.2079L166.153 57.0852ZM178.135 55.6143L180.456 58.5066L184.808 54.2218L189.69 49.7749L188.659 48.4894L183.261 52.2936L178.134 55.6157L178.135 55.6143Z" fill="black"/>
<path d="M123.249 0.00778489C151.693 0.352493 177.302 12.1934 195.713 31.0604C214.121 49.9218 225.334 75.8107 224.989 104.251C224.644 132.696 212.804 158.304 193.937 176.715C175.076 195.124 149.187 206.337 120.747 205.992C92.3025 205.648 66.6941 193.807 48.2834 174.94C29.8753 156.078 18.6621 130.189 19.0068 101.749C19.3515 73.3043 31.1923 47.6956 50.0591 29.2846C68.9189 10.8764 94.8089 -0.338297 123.249 0.00778489ZM192.485 34.1998C174.879 16.1596 150.393 4.83782 123.198 4.50685C96.0036 4.17587 71.2467 14.903 53.2012 32.512C35.1612 50.1182 23.8395 74.6049 23.5086 101.8C23.1776 128.995 33.9046 153.755 51.5134 171.797C69.1194 189.838 93.6058 201.16 120.8 201.49C147.995 201.821 172.755 191.094 190.797 173.485C208.837 155.879 220.159 131.392 220.49 104.198C220.821 77.0027 210.094 52.2428 192.485 34.1998Z" fill="#101010"/>
<path d="M84.5721 138.528H3.54455L14.549 114.915L3.54455 91.3033H66.1558C68.7418 105.918 73.8368 123.269 84.5721 138.528Z" fill="url(#paint1_linear_2507_107)"/>
<path d="M159.425 138.526H240.454L229.448 114.915L240.454 91.3047H177.844C175.258 105.92 170.163 123.271 159.428 138.53L159.425 138.527V138.526Z" fill="url(#paint2_linear_2507_107)"/>
<path d="M122.001 57.64C117.407 60.4457 111.36 64.0041 103.775 67.4772C96.0091 71.0328 86.7131 74.4483 75.8927 76.761C77.2646 95.3341 81.6318 136.532 121.999 153.867C162.367 136.532 166.735 95.3313 168.106 76.761C157.286 74.4483 147.988 71.0328 140.223 67.4772C132.638 64.0041 126.592 60.4457 121.998 57.64H122.001ZM101.905 63.3847C109.817 59.7604 116.156 55.9343 120.817 53.0695L122.001 52.343L123.184 53.0695C127.846 55.9357 134.188 59.7618 142.099 63.3847C150.034 67.0172 159.642 70.5013 170.936 72.7371L172.895 73.1244L172.735 75.3629C171.421 93.6847 167.934 139.715 122.867 158.405L122.003 158.765L121.14 158.405C76.074 139.715 72.5871 93.6847 71.2714 75.3629L71.1121 73.1244L73.0705 72.7371C84.3647 70.5013 93.9725 67.0172 101.908 63.3847H101.905Z" fill="#101010"/>
<path d="M69.6289 97.1867C73.7805 116.033 82.4846 137.997 101.751 153.712C95.1755 149.729 89.9102 145.244 85.7106 140.782H0L12.0578 114.91L0 89.0373H68.0469L68.3778 90.9078C68.7404 92.9527 69.151 95.0484 69.618 97.184H69.6289V97.1867ZM72.0268 120.172C71.3621 118.649 70.9061 117.446 70.6122 116.662C70.5408 116.448 70.4722 116.231 70.4007 116.018C70.3293 115.824 70.2579 115.631 70.1865 115.436C67.4412 107.897 65.5735 100.45 64.2702 93.5556H7.08498L17.0388 114.908L7.08498 136.261H80.3436C77.0106 131.029 74.2735 125.605 72.0268 120.168V120.172Z" fill="#101010"/>
<path d="M174.368 97.1867C170.217 116.033 161.513 137.997 142.246 153.712C148.822 149.729 154.087 145.244 158.287 140.782H244L231.942 114.91L244 89.0373H175.953L175.622 90.9078C175.26 92.9527 174.849 95.0484 174.382 97.184H174.371L174.368 97.1867ZM171.968 120.175C172.632 118.652 173.091 117.446 173.385 116.662C173.456 116.448 173.525 116.231 173.597 116.018C173.668 115.824 173.739 115.631 173.811 115.436C176.556 107.897 178.424 100.45 179.727 93.5556H236.914L226.96 114.908L236.914 136.261H163.655C166.988 131.029 169.722 125.605 171.972 120.171L171.969 120.174L171.968 120.175Z" fill="#101010"/>
<path d="M31.4203 105.756L33.6011 110.478C33.678 110.64 33.8209 110.746 34.0008 110.769L39.1645 111.382C39.3636 111.405 39.5215 111.535 39.5833 111.726C39.6465 111.917 39.5943 112.116 39.446 112.251L35.6282 115.783C35.4977 115.905 35.44 116.074 35.4771 116.25L36.4892 121.351C36.5291 121.547 36.4549 121.738 36.2901 121.855C36.1281 121.974 35.9221 121.985 35.749 121.886L31.2102 119.348C31.0536 119.26 30.8765 119.26 30.7172 119.348L26.1783 121.886C26.0012 121.984 25.7993 121.971 25.6372 121.855C25.4752 121.738 25.401 121.547 25.4381 121.351L26.4502 116.25C26.4846 116.073 26.4296 115.905 26.2992 115.783L22.4813 112.251C22.333 112.114 22.2822 111.917 22.344 111.726C22.4072 111.535 22.5637 111.404 22.7629 111.382L27.9266 110.769C28.1065 110.746 28.2493 110.644 28.3262 110.478L30.507 105.756C30.5922 105.574 30.7638 105.462 30.9657 105.462C31.1676 105.462 31.3393 105.574 31.4244 105.756H31.4203Z" fill="#101010"/>
<path d="M53.5144 105.756L55.6952 110.478C55.7693 110.64 55.9149 110.746 56.0948 110.769L61.2585 111.382C61.4577 111.405 61.6156 111.535 61.6774 111.726C61.7406 111.917 61.6884 112.116 61.5401 112.251L57.7222 115.783C57.5918 115.905 57.5341 116.074 57.5711 116.25L58.5833 121.351C58.6231 121.547 58.549 121.738 58.3842 121.855C58.2221 121.974 58.0161 121.985 57.8431 121.886L53.3042 119.348C53.1477 119.26 52.9705 119.26 52.8112 119.348L48.2724 121.886C48.0952 121.984 47.8933 121.971 47.7313 121.855C47.5692 121.738 47.4951 121.547 47.5321 121.351L48.5443 116.25C48.5786 116.073 48.5237 115.905 48.3932 115.783L44.5754 112.251C44.4271 112.114 44.3762 111.917 44.438 111.726C44.5012 111.535 44.6578 111.404 44.8569 111.382L50.0206 110.769C50.2005 110.746 50.3433 110.644 50.4202 110.478L52.5983 105.756C52.6835 105.574 52.8552 105.462 53.057 105.462C53.2589 105.462 53.4306 105.574 53.5157 105.756H53.5144Z" fill="#101010"/>
<path d="M191.396 105.756L193.577 110.478C193.651 110.64 193.797 110.746 193.977 110.769L199.14 111.382C199.339 111.405 199.497 111.535 199.559 111.726C199.621 111.917 199.57 112.116 199.422 112.251L195.604 115.783C195.474 115.905 195.416 116.074 195.453 116.25L196.465 121.351C196.505 121.547 196.431 121.738 196.266 121.855C196.104 121.974 195.898 121.985 195.725 121.886L191.186 119.348C191.029 119.26 190.852 119.26 190.693 119.348L186.154 121.886C185.977 121.984 185.775 121.971 185.613 121.855C185.451 121.738 185.377 121.547 185.414 121.351L186.426 116.25C186.46 116.073 186.406 115.905 186.275 115.783L182.457 112.251C182.309 112.114 182.258 111.917 182.32 111.726C182.383 111.535 182.54 111.404 182.739 111.382L187.902 110.769C188.082 110.746 188.225 110.644 188.302 110.478L190.483 105.756C190.568 105.574 190.74 105.462 190.942 105.462C191.143 105.462 191.315 105.574 191.4 105.756H191.396Z" fill="#101010"/>
<path d="M213.493 105.756L215.674 110.478C215.751 110.64 215.894 110.746 216.073 110.769L221.237 111.382C221.436 111.405 221.594 111.535 221.656 111.726C221.719 111.917 221.667 112.116 221.519 112.251L217.701 115.783C217.569 115.905 217.513 116.074 217.55 116.25L218.562 121.351C218.602 121.547 218.528 121.738 218.363 121.855C218.201 121.974 217.995 121.985 217.822 121.886L213.283 119.348C213.126 119.26 212.949 119.26 212.79 119.348L208.251 121.886C208.074 121.984 207.872 121.971 207.71 121.855C207.548 121.738 207.474 121.547 207.511 121.351L208.523 116.25C208.557 116.073 208.502 115.905 208.372 115.783L204.554 112.251C204.406 112.114 204.355 111.917 204.417 111.726C204.48 111.535 204.636 111.404 204.836 111.382L209.999 110.769C210.179 110.746 210.322 110.644 210.399 110.478L212.58 105.756C212.665 105.574 212.837 105.462 213.038 105.462C213.24 105.462 213.412 105.574 213.497 105.756H213.493Z" fill="#101010"/>
<path d="M108.24 139.992L128.237 84.7923H103.198V73.8852H140.797V85.1233L121.379 139.992H108.24Z" fill="#101010"/>
<path d="M75.7224 181.918L87.728 157.214L94.3048 160.41C96.6203 161.535 98.0568 162.841 98.6143 164.327C99.1705 165.812 98.922 167.693 97.8686 169.967C97.2039 171.413 96.564 172.781 95.9501 174.073C95.3348 175.365 94.71 176.652 94.0741 177.934C93.4383 179.215 92.7571 180.565 92.032 181.979C90.8908 184.225 89.5628 185.589 88.048 186.075C86.5332 186.56 84.6174 186.241 82.302 185.115L75.7238 181.919L75.7224 181.918ZM82.3349 180.092L84.2809 181.037C84.9292 181.352 85.4963 181.444 85.9811 181.309C86.4659 181.176 86.8491 180.834 87.1292 180.283C87.695 179.197 88.2512 178.112 88.7964 177.029C89.3417 175.945 89.88 174.857 90.4101 173.767C90.9402 172.676 91.4648 171.578 91.9812 170.475C92.4976 169.372 93.007 168.267 93.5056 167.16C93.7596 166.609 93.7898 166.105 93.5921 165.646C93.3943 165.188 92.9727 164.802 92.3231 164.486L90.3771 163.541L82.3336 180.092H82.3349Z" fill="black"/>
<path d="M102.74 192.193L107.754 165.188L112.817 166.128L107.803 193.134L102.74 192.194V192.193Z" fill="black"/>
<path d="M121.162 194.551L122.764 166.867L131.525 166.164L137.519 193.238L132.248 193.661L131.209 187.992L126.555 188.365L126.431 194.128L121.16 194.551H121.162ZM126.673 183.81L130.368 183.513L129.267 177.505L128.329 170.967L126.686 171.098L126.803 177.703L126.673 183.81Z" fill="black"/>
<path d="M158.077 187.149C155.71 188.164 153.785 188.409 152.304 187.886C150.823 187.363 149.547 185.987 148.478 183.755C148.323 183.423 148.16 183.055 147.985 182.65C147.812 182.244 147.649 181.835 147.496 181.42C147.344 181.007 147.222 180.62 147.13 180.261L151.579 178.354C151.866 179.139 152.164 179.908 152.475 180.66C152.784 181.411 153.104 182.084 153.433 182.677C153.707 183.17 154.101 183.471 154.614 183.581C155.128 183.691 155.732 183.596 156.427 183.299C157.08 183.019 157.535 182.659 157.794 182.218C158.053 181.778 158.104 181.286 157.946 180.743C157.835 180.369 157.711 180 157.577 179.641C157.442 179.282 157.291 178.929 157.123 178.583C156.957 178.237 156.775 177.895 156.58 177.556C156.348 177.132 155.985 176.809 155.491 176.585C154.996 176.361 154.474 176.305 153.924 176.416L150.736 176.998C149.523 177.219 148.481 177.199 147.609 176.938C146.737 176.677 145.989 176.207 145.362 175.529C144.736 174.85 144.181 173.993 143.699 172.955C143.49 172.497 143.308 172.086 143.153 171.723C142.997 171.361 142.841 170.982 142.684 170.589C142.103 169.058 141.86 167.723 141.958 166.586C142.055 165.449 142.515 164.451 143.337 163.595C144.158 162.738 145.375 161.964 146.983 161.275C149.339 160.266 151.254 160.02 152.729 160.54C154.204 161.061 155.473 162.43 156.537 164.652C156.751 165.096 156.992 165.646 157.255 166.306C157.519 166.965 157.755 167.58 157.963 168.15L153.418 170.097C153.138 169.358 152.848 168.624 152.548 167.893C152.247 167.162 151.925 166.441 151.582 165.729C151.356 165.229 150.986 164.927 150.474 164.822C149.963 164.718 149.349 164.82 148.634 165.126C147.97 165.41 147.501 165.773 147.223 166.216C146.946 166.658 146.884 167.146 147.038 167.677C147.204 168.241 147.406 168.797 147.639 169.343C147.874 169.89 148.138 170.419 148.43 170.928C148.664 171.326 148.976 171.651 149.37 171.899C149.762 172.148 150.253 172.215 150.838 172.101L153.624 171.542C154.921 171.285 156.054 171.276 157.02 171.515C157.989 171.754 158.824 172.214 159.527 172.896C160.23 173.579 160.836 174.452 161.341 175.518C161.455 175.755 161.569 176.005 161.682 176.269C161.794 176.533 161.901 176.798 162.004 177.064C162.106 177.332 162.205 177.589 162.297 177.835C163.176 180.147 163.288 182.023 162.635 183.461C161.981 184.899 160.461 186.131 158.072 187.154L158.077 187.149Z" fill="black"/>
<defs>
<linearGradient id="paint0_linear_2507_107" x1="65.9355" y1="60.5086" x2="189.622" y2="190.977" gradientUnits="userSpaceOnUse">
<stop stop-color="#FFF979"/>
<stop offset="0.35" stop-color="#FFBF3F"/>
<stop offset="0.36" stop-color="#FFD859"/>
<stop offset="0.4" stop-color="#FFD859"/>
<stop offset="0.47" stop-color="#FFD859"/>
<stop offset="0.77" stop-color="#BF8000"/>
<stop offset="0.88" stop-color="#FFCC4D"/>
<stop offset="1" stop-color="#FFCC4D"/>
</linearGradient>
<linearGradient id="paint1_linear_2507_107" x1="49.9067" y1="41.6679" x2="228.585" y2="155.85" gradientUnits="userSpaceOnUse">
<stop stop-color="#FFF979"/>
<stop offset="0.31" stop-color="#FFBF3F"/>
<stop offset="0.36" stop-color="#FFD859"/>
<stop offset="0.4" stop-color="#FFD859"/>
<stop offset="0.47" stop-color="#FFD859"/>
<stop offset="0.88" stop-color="#FFCC4D"/>
<stop offset="1" stop-color="#FFCC4D"/>
</linearGradient>
<linearGradient id="paint2_linear_2507_107" x1="61.426" y1="28.165" x2="274.895" y2="150.219" gradientUnits="userSpaceOnUse">
<stop stop-color="#FFCB4B"/>
<stop offset="0.31" stop-color="#FFBF3F"/>
<stop offset="0.36" stop-color="#FFD859"/>
<stop offset="0.4" stop-color="#FFD859"/>
<stop offset="0.47" stop-color="#FFD859"/>
<stop offset="0.88" stop-color="#FFCC4D"/>
<stop offset="1" stop-color="#FFCC4D"/>
</linearGradient>
</defs>
</svg>
