<?xml version="1.0" encoding="UTF-8"?>
<svg id="Camada_2" data-name="Camada 2" xmlns="http://www.w3.org/2000/svg" viewBox="0 0 693.62 265.48">
  <defs>
    <style>
      .cls-1 {
        fill: #fff;
      }

      .cls-2 {
        fill: #d6d900;
      }
    </style>
  </defs>
  <g id="Camada_1-2" data-name="Camada 1">
    <path class="cls-2" d="M325.97,237.43h-21.96c-4.91,0-5.95-1.04-5.95-5.11v-2.97c0-4.01,1.04-5.05,5.95-5.05h19.34c3.04,0,4.28,1.32,4.28,4.08v.97c0,.9.56,1.45,1.52,1.45h5.39c1.04,0,1.52-.55,1.52-1.45v-1.45c0-7.81-3.04-10.78-11.19-10.78h-24.46c-7.53,0-10.98,3.38-10.98,10.57v6.36c0,7.18,3.45,10.57,10.98,10.57h21.97c4.98,0,5.94,1.03,5.94,5.11v3.52c0,4.08-.96,5.04-5.94,5.04h-20.93c-2.97,0-4.22-1.31-4.22-4.07v-1.04c0-.9-.62-1.45-1.52-1.45h-5.45c-.97,0-1.52.55-1.52,1.45v1.52c0,7.88,3.11,10.78,11.26,10.78h25.97c7.54,0,11.06-3.39,11.06-10.57v-6.91c0-7.18-3.52-10.57-11.06-10.57"/>
    <path class="cls-2" d="M390.36,224.3c.9,0,1.45-.55,1.45-1.45v-4.28c0-.97-.55-1.45-1.45-1.45h-42.63c-.97,0-1.45.48-1.45,1.45v45.46c0,.97.48,1.45,1.45,1.45h42.63c.9,0,1.45-.48,1.45-1.45v-4.28c0-.9-.55-1.46-1.45-1.46h-35.44v-13.67h29.98c.9,0,1.52-.49,1.52-1.39v-4.35c0-.97-.62-1.45-1.52-1.45h-29.98v-13.13h35.44Z"/>
    <path class="cls-2" d="M461.37,217.12h-10.98c-1.17,0-1.73.41-2.07,1.31l-16.38,39.04-16.3-39.04c-.35-.9-.9-1.31-2.07-1.31h-10.92c-.97,0-1.45.48-1.45,1.45v45.46c0,.97.48,1.45,1.45,1.45h5.18c.97,0,1.52-.48,1.52-1.45v-39.8l17.07,39.94c.34.9.83,1.31,2.07,1.31h6.63c1.18,0,1.73-.41,2.07-1.31l17-39.87v39.73c0,.97.55,1.45,1.52,1.45h5.66c.97,0,1.46-.48,1.46-1.45v-45.46c0-.97-.49-1.45-1.46-1.45"/>
    <path class="cls-2" d="M541.57,217.12h-6.08c-1.17,0-1.72.41-2.07,1.31l-17.13,40-17.07-40c-.34-.9-.89-1.31-2.07-1.31h-6.42c-.83,0-1.11.62-.76,1.45l20.03,45.6c.42.9.9,1.31,2.07,1.31h8.09c1.24,0,1.72-.41,2.07-1.31l20.17-45.6c.35-.83,0-1.45-.83-1.45"/>
    <path class="cls-2" d="M556.21,217.12h-5.66c-.97,0-1.45.48-1.45,1.45v45.46c0,.97.48,1.45,1.45,1.45h5.66c.97,0,1.52-.48,1.52-1.45v-45.46c0-.97-.55-1.45-1.52-1.45M562.09,203.58h-5.81c-1.1,0-1.72.41-2.41,1.24l-5.74,7.39c-.48.63-.14,1.39.69,1.39h4.01c1.1,0,1.86-.49,2.42-1.11l7.39-7.46c.62-.62.28-1.45-.55-1.45"/>
    <path class="cls-2" d="M608.44,232.32h5.46c.97,0,1.45-.49,1.45-1.45v-2.97c0-7.81-3.04-10.78-11.19-10.78h-24.11c-7.81,0-11.61,3.59-11.61,11.05v26.26c0,7.53,3.8,11.05,11.61,11.05h24.11c8.15,0,11.19-2.9,11.19-10.78v-2.97c0-.9-.48-1.45-1.45-1.45h-5.46c-.96,0-1.52.55-1.52,1.45v2.49c0,2.76-1.24,4.07-4.28,4.07h-18.58c-5.74,0-6.98-1.03-6.98-5.8v-22.38c0-4.77,1.24-5.81,6.98-5.81h18.58c3.04,0,4.28,1.32,4.28,4.08v2.49c0,.96.56,1.45,1.52,1.45"/>
    <path class="cls-2" d="M632.06,217.12h-5.66c-.97,0-1.45.48-1.45,1.45v45.46c0,.97.48,1.45,1.45,1.45h5.66c.97,0,1.52-.48,1.52-1.45v-45.46c0-.97-.55-1.45-1.52-1.45"/>
    <path class="cls-2" d="M682.08,217.12h-26.18c-7.81,0-11.61,3.59-11.61,11.05v26.26c0,7.53,3.8,11.05,11.61,11.05h26.18c7.88,0,11.54-3.52,11.54-11.05v-26.26c0-7.46-3.66-11.05-11.54-11.05M684.91,252.49c0,4.77-1.17,5.8-6.91,5.8h-18.1c-5.73,0-6.97-1.03-6.97-5.8v-22.38c0-4.77,1.24-5.81,6.97-5.81h18.1c5.74,0,6.91,1.04,6.91,5.81v22.38Z"/>
    <polygon class="cls-1" points="290.79 0 290.79 195.42 322.33 195.42 322.33 129.81 350.25 129.81 350.25 98.27 322.33 98.27 322.33 31.55 356.39 31.55 356.39 48.57 387.94 48.57 387.94 0 290.79 0"/>
    <path class="cls-1" d="M397.98,0v195.42h31.55v-65.61h34.06v65.61h31.54V0h-97.15ZM463.59,98.27h-34.06V31.55h34.06v66.72Z"/>
    <polygon class="cls-1" points="536.73 163.87 536.73 0 505.18 0 505.18 195.42 586.42 195.42 586.42 163.87 536.73 163.87"/>
    <polygon class="cls-1" points="693.62 48.57 693.62 0 596.47 0 596.47 195.42 693.62 195.42 693.62 146.84 662.07 146.84 662.07 163.87 628.02 163.87 628.02 129.81 655.93 129.81 655.93 98.27 628.02 98.27 628.02 31.55 662.07 31.55 662.07 48.57 693.62 48.57"/>
    <path class="cls-2" d="M239.43,15.41c-1.73-2.14-3.68-4.09-5.82-5.82-6.75-5.47-15.34-8.75-24.68-8.75H39.26c-4.48,0-8.79.76-12.81,2.15C11.37,8.2.44,22.36,0,39.09c0,.33,0,.67,0,1.01v153.67h118.2l69,55.89-8.85-55.89h30.58c4.48,0,8.79-.76,12.8-2.15,15.08-5.21,26.02-19.38,26.45-36.1,0-.33,0-.67,0-1.01V40.1c0-9.34-3.29-17.94-8.76-24.69M239.43,154.51c0,.26,0,.52-.01.79-.42,16.44-13.94,29.71-30.49,29.71h-40.83l1.39,8.76,5.5,34.72-42.86-34.72-10.82-8.76H8.75V40.1c0-.26,0-.53,0-.79.42-16.45,13.94-29.72,30.5-29.72h169.67c16.81,0,30.5,13.69,30.5,30.51v114.41Z"/>
    <path class="cls-2" d="M183.44,63.11c-1.2-3.05-4.64-4.54-7.69-3.34-3.05,1.2-4.54,4.65-3.34,7.69,5.32,13.47,5.07,28.21-.7,41.49-5.77,13.28-16.36,23.53-29.84,28.84-13.47,5.32-28.21,5.07-41.49-.7-13.29-5.77-23.53-16.36-28.84-29.84-1.2-3.05-4.64-4.54-7.69-3.34-3.04,1.2-4.54,4.65-3.34,7.69,6.48,16.42,18.96,29.33,35.15,36.36,8.44,3.66,17.36,5.5,26.3,5.5,8.2,0,16.41-1.55,24.27-4.65,16.42-6.48,29.33-18.96,36.36-35.15,7.03-16.19,7.33-34.15.86-50.57"/>
    <path class="cls-2" d="M110.35,100.19c4.4-.76,5.98-12.98,3.52-27.31-2.46-14.33-8.02-25.33-12.42-24.57-4.4.76-5.98,12.98-3.52,27.31,2.46,14.33,8.02,25.33,12.42,24.57"/>
    <path class="cls-2" d="M151.93,93.05c4.4-.75,5.98-12.98,3.52-27.31-2.46-14.33-8.02-25.33-12.42-24.57-4.4.76-5.98,12.98-3.52,27.31,2.46,14.33,8.02,25.33,12.42,24.57"/>
  </g>
</svg>