<?xml version="1.0" encoding="UTF-8"?>
<svg id="Camada_2" xmlns="http://www.w3.org/2000/svg" version="1.1" xmlns:xlink="http://www.w3.org/1999/xlink" viewBox="0 0 170.5 47.8">
  <!-- Generator: Adobe Illustrator 30.2.1, SVG Export Plug-In . SVG Version: 2.1.1 Build 1)  -->
  <defs>
    <style>
      .st0 {
        fill: url(#Gradiente_sem_nome_2);
      }

      .st1 {
        fill: #fff;
      }

      .st2 {
        fill: url(#Gradiente_sem_nome);
      }

      .st2, .st3 {
        fill-rule: evenodd;
      }

      .st3 {
        fill: #a80f0f;
      }
    </style>
    <linearGradient id="Gradiente_sem_nome" data-name="Gradiente sem nome" x1="100.3" y1="49.8" x2="100.3" y2="26.2" gradientTransform="translate(0 50) scale(1 -1)" gradientUnits="userSpaceOnUse">
      <stop offset=".5" stop-color="#fff"/>
      <stop offset=".9" stop-color="#787878"/>
    </linearGradient>
    <linearGradient id="Gradiente_sem_nome_2" data-name="Gradiente sem nome 2" x1="14.5" y1="50" x2="14.5" y2="24.1" gradientTransform="translate(0 50) scale(1 -1)" gradientUnits="userSpaceOnUse">
      <stop offset=".5" stop-color="#fff"/>
      <stop offset=".9" stop-color="#787878"/>
    </linearGradient>
  </defs>
  <path class="st3" d="M46.1,28.9h83.9c1,0,1.5.8,1.1,1.8l-4.1,9.9c-.4,1-1.6,1.8-2.6,1.8H40.5c-1,0-1.5-.8-1.1-1.8l4.1-9.9c.4-1,1.6-1.8,2.6-1.8"/>
  <path class="st1" d="M56,37.7c.6,0,1.2-.2,1.8-.6.6-.4,1-.8,1.2-1.3.2-.6.2-1.1,0-1.5-.3-.4-.8-.6-1.4-.6h-3.1l-1.6,4h3.1ZM58.1,32c1.4,0,2.4.3,3,1,.6.7.6,1.6.2,2.8-.4,1.1-1.2,2-2.4,2.7-1,.6-2.1.9-3.3.9h-5.3l2.8-7.3s5.1,0,5.1,0Z"/>
  <polygon class="st1" points="70 39.3 61.7 39.3 64.5 32 72.5 32 71.9 33.7 66 33.7 65.5 34.8 69.5 34.8 68.9 36.5 64.9 36.5 64.4 37.7 70.6 37.7 70 39.3"/>
  <polygon class="st1" points="83.6 39.3 75.3 39.3 78.2 32 86.1 32 85.5 33.7 79.6 33.7 79.2 34.8 83.1 34.8 82.5 36.5 78.5 36.5 78.1 37.7 84.2 37.7 83.6 39.3"/>
  <polygon class="st1" points="93.1 39.3 85.4 39.3 88.2 32 90.3 32 88.1 37.7 93.8 37.7 93.1 39.3"/>
  <polygon class="st1" points="96.8 39.3 94.7 39.3 97.5 32 99.6 32 96.8 39.3"/>
  <polygon class="st1" points="109.6 33.7 106.1 33.7 103.9 39.3 101.8 39.3 104 33.7 100.5 33.7 101.1 32 110.2 32 109.6 33.7"/>
  <polygon class="st1" points="117 39.3 108.8 39.3 111.6 32 119.5 32 118.9 33.7 113 33.7 112.6 34.8 116.6 34.8 115.9 36.5 111.9 36.5 111.5 37.7 117.6 37.7 117 39.3"/>
  <polygon class="st3" points="85.3 47.8 81 42.4 89.5 42.4 85.3 47.8"/>
  <path class="st2" d="M153.5,13.4l3.6-7.3h4.8l3.6,7.3h-4l-2.1-4.2-2.1,4.2s-3.9,0-3.9,0ZM152.5,23.3h-4l4.1-8.3h3.9l-.6,1.2h0l-3.5,7h0ZM170.5,23.3h-4l-1.9-3.7h0l-2.3-4.6h4l4.1,8.3ZM142.2,13.4v-7.3h3.9v7.3h-3.9ZM146.1,23.3h-3.9v-8.3h3.9v8.3ZM118.7,13.4v-7.3h13.2c1.8,0,3.3.5,4.4,1.6s1.7,2.4,1.7,4.1,0,1.2-.2,1.7h-4.5s0,0,.1,0c.5-.4.7-1,.7-1.7s-.2-1.2-.7-1.6c-.5-.4-1.1-.6-1.9-.6h-8.9v4h-3.9ZM138.4,23.3h-4.4l-4-6.1h-7.4v6.1h-3.9v-8.3h18.4c-.6.9-1.5,1.5-2.8,1.9l4.1,6.4h0ZM106.3.2l-3.1,4.4h-1.8l1.7-4.4s3.2,0,3.2,0ZM92.4,13.4c.3-2,1.2-3.6,2.7-5,2.2-1.9,4.9-2.9,8.2-2.9s6,.9,8.2,2.9c1.5,1.4,2.4,3,2.7,5h-4.1c-.2-1.1-.8-2.1-1.8-2.9-1.3-1.1-2.9-1.6-5-1.6s-3.8.5-5,1.6c-.9.8-1.5,1.8-1.8,2.9h-4.1,0ZM114.3,15c0,2.4-1,4.4-2.8,5.9-2.1,1.9-4.9,2.8-8.2,2.8s-6.1-1-8.2-2.8c-1.8-1.6-2.7-3.5-2.8-5.9h4c0,1.6.7,2.9,1.9,3.9,1.2,1.1,2.9,1.6,5,1.6s3.8-.5,5.1-1.6c1.2-1,1.8-2.3,1.9-3.9h4ZM82.2,15v8.3h-3.9v-8.3h3.9ZM89.9,9.4h-7.7v4h-3.9v-4h-7.7v-3.3h19.3s0,3.3,0,3.3ZM55.5,13.4l3.6-7.3h4.8l3.6,7.3h-4l-2.1-4.2-2.1,4.2s-3.9,0-3.9,0ZM54.5,23.3h-4l4.1-8.3h3.9l-.6,1.2h0l-3.5,7h0ZM72.6,23.3h-4l-1.8-3.7h0l-2.3-4.6h4l4.1,8.3h0ZM30,13.4v-7.3h13.2c1.8,0,3.3.5,4.4,1.6s1.7,2.4,1.7,4.1,0,1.2-.2,1.7h-4.5s0,0,0,0c.5-.4.7-1,.7-1.7s-.2-1.2-.7-1.6c-.5-.4-1.1-.6-1.9-.6h-8.9v4h-3.9,0ZM49.8,23.3h-4.4l-4-6.1h-7.4v6.1h-3.9v-8.3h18.4c-.6.9-1.5,1.5-2.8,1.9l4.1,6.4h0Z"/>
  <path class="st0" d="M26.9,13.6c-.3-6.4-5.4-11.5-11.8-11.8V0h-1.2v1.8C7.5,2.1,2.3,7.2,2,13.6H.2v1.2h4.2c.3,5.1,4.3,9.1,9.4,9.4v1.7h1.2v-1.7c5.1-.3,9.1-4.3,9.4-9.4h4.2v-1.2h-1.8ZM15.1,10.3v-1.3c2.5.3,4.4,2.2,4.7,4.7h-2.3c-.3-1.4-1.5-2.5-3-2.5s-2.7,1.1-3,2.5h-2.3c.3-2.5,2.2-4.4,4.7-4.7v1.3h1.2ZM13.9,4.2v2.3c-3.8.3-6.8,3.3-7.1,7.1h-2.3c.3-5.1,4.3-9.1,9.4-9.4ZM13.9,21.9c-3.8-.3-6.8-3.3-7.1-7.1h2.4c.3,2.5,2.2,4.4,4.7,4.7v2.4ZM14.5,17.3c-1.5,0-2.7-1.1-3-2.5h1.7c.2.5.7.8,1.3.8s1.1-.3,1.3-.8h1.7c-.3,1.4-1.5,2.5-3,2.5ZM15.1,21.9v-2.4c2.5-.3,4.4-2.2,4.7-4.7h2.4c-.3,3.8-3.3,6.8-7.1,7.1ZM22.2,13.6c-.3-3.8-3.3-6.8-7.1-7.1v-2.3c5,.3,9.1,4.3,9.4,9.4,0,0-2.3,0-2.3,0Z"/>
</svg>