<?xml version="1.0" encoding="UTF-8"?>
<svg id="Camada_2" data-name="Camada 2" xmlns="http://www.w3.org/2000/svg" xmlns:xlink="http://www.w3.org/1999/xlink" viewBox="0 0 170.53 47.75">
  <defs>
    <style>
      .cls-1 {
        fill: #fff;
      }

      .cls-2 {
        fill: url(#Gradiente_sem_nome_120-2);
      }

      .cls-3 {
        fill: #a80f0f;
      }

      .cls-3, .cls-4 {
        fill-rule: evenodd;
      }

      .cls-4 {
        fill: url(#Gradiente_sem_nome_120);
      }
    </style>
    <linearGradient id="Gradiente_sem_nome_120" data-name="Gradiente sem nome 120" x1="100.27" y1=".23" x2="100.27" y2="23.83" gradientUnits="userSpaceOnUse">
      <stop offset=".5" stop-color="#fff"/>
      <stop offset=".9" stop-color="#787878"/>
    </linearGradient>
    <linearGradient id="Gradiente_sem_nome_120-2" data-name="Gradiente sem nome 120" x1="14.46" y1="0" x2="14.46" y2="25.86" xlink:href="#Gradiente_sem_nome_120"/>
  </defs>
  <g id="Camada_1-2" data-name="Camada 1">
    <path class="cls-3" d="M6.79,28.9h83.91c1,0,1.49.82,1.07,1.82l-4.07,9.89c-.41,1-1.57,1.82-2.57,1.82H1.22c-1,0-1.49-.82-1.07-1.82l4.07-9.89c.41-1,1.57-1.82,2.57-1.82"/>
    <path class="cls-1" d="M16.71,37.67c.64,0,1.25-.19,1.84-.56.59-.37.98-.82,1.18-1.33.23-.6.21-1.11-.07-1.51-.28-.41-.75-.61-1.42-.61h-3.09l-1.55,4.02h3.1ZM18.78,32c1.41,0,2.39.35,2.95,1.04.56.69.62,1.61.17,2.76-.42,1.09-1.22,1.97-2.4,2.65-1.03.59-2.13.88-3.29.88h-5.33l2.82-7.33h5.08Z"/>
    <polygon class="cls-1" points="30.65 39.33 22.4 39.33 25.23 32 33.19 32 32.55 33.66 26.69 33.66 26.23 34.85 30.21 34.85 29.57 36.51 25.59 36.51 25.14 37.67 31.29 37.67 30.65 39.33"/>
    <polygon class="cls-1" points="44.28 39.33 36.04 39.33 38.86 32 46.82 32 46.18 33.66 40.32 33.66 39.86 34.85 43.84 34.85 43.2 36.51 39.22 36.51 38.77 37.67 44.92 37.67 44.28 39.33"/>
    <polygon class="cls-1" points="53.83 39.33 46.09 39.33 48.91 32 51.01 32 48.83 37.67 54.46 37.67 53.83 39.33"/>
    <polygon class="cls-1" points="57.51 39.33 55.41 39.33 58.23 32 60.33 32 57.51 39.33"/>
    <polygon class="cls-1" points="70.25 33.66 66.77 33.66 64.59 39.33 62.49 39.33 64.67 33.66 61.18 33.66 61.82 32 70.89 32 70.25 33.66"/>
    <polygon class="cls-1" points="77.71 39.33 69.46 39.33 72.28 32 80.24 32 79.6 33.66 73.74 33.66 73.28 34.85 77.26 34.85 76.62 36.51 72.64 36.51 72.19 37.67 78.34 37.67 77.71 39.33"/>
    <polygon class="cls-3" points="5.22 47.75 4.8 42.42 14.46 42.42 5.22 47.75"/>
    <path class="cls-4" d="M153.48,13.36l3.64-7.32h4.84l3.63,7.32h-4l-2.09-4.18-2.08,4.18h-3.94ZM152.5,23.32h-3.97l4.12-8.29h3.94l-.62,1.25h.01l-3.49,7.04ZM170.53,23.32h-3.97l-1.85-3.72h-.01l-2.28-4.57h4l4.11,8.29ZM142.19,13.36v-7.32h3.93v7.32h-3.93ZM146.12,23.32h-3.93v-8.29h3.93v8.29ZM118.68,13.36v-7.32h13.24c1.83,0,3.3.52,4.42,1.56,1.12,1.04,1.67,2.41,1.67,4.09,0,.6-.06,1.16-.18,1.66h-4.5s.07-.06.1-.09c.46-.41.69-.98.69-1.69,0-.67-.24-1.21-.71-1.61-.48-.41-1.12-.61-1.94-.61h-8.86v4h-3.93ZM138.44,23.32h-4.43l-3.96-6.11h-7.43v6.11h-3.93v-8.29h18.43c-.61.88-1.54,1.51-2.78,1.87l4.11,6.42ZM106.3.23l-3.1,4.44h-1.81l1.72-4.44h3.19ZM92.43,13.36c.27-1.97,1.17-3.63,2.7-4.98,2.16-1.91,4.89-2.86,8.19-2.86s6.03.95,8.19,2.86c1.53,1.35,2.43,3.01,2.7,4.98h-4.09c-.25-1.14-.83-2.11-1.76-2.9-1.26-1.08-2.95-1.62-5.04-1.62s-3.78.54-5.04,1.62c-.93.79-1.52,1.76-1.77,2.9h-4.09ZM114.3,15.04c-.09,2.41-1.01,4.39-2.78,5.95-2.14,1.89-4.88,2.84-8.21,2.84s-6.06-.95-8.19-2.84c-1.76-1.56-2.68-3.54-2.76-5.95h4.04c.08,1.59.71,2.87,1.86,3.87,1.25,1.07,2.93,1.61,5.04,1.61s3.82-.54,5.08-1.61c1.17-.99,1.79-2.28,1.88-3.87h4.04ZM82.19,15.04v8.29h-3.93v-8.29h3.93ZM89.89,9.37h-7.7v4h-3.93v-4h-7.7v-3.32h19.33v3.32ZM55.52,13.36l3.64-7.32h4.84l3.63,7.32h-4l-2.09-4.18-2.08,4.18h-3.94ZM54.53,23.32h-3.97l4.12-8.29h3.94l-.62,1.25h.01l-3.49,7.04ZM72.57,23.32h-3.97l-1.85-3.72h-.01l-2.28-4.57h3.99l4.11,8.29ZM30.01,13.36v-7.32h13.24c1.83,0,3.3.52,4.42,1.56,1.12,1.04,1.67,2.41,1.67,4.09,0,.6-.06,1.16-.18,1.66h-4.5s.07-.06.1-.09c.46-.41.69-.98.69-1.69,0-.67-.24-1.21-.71-1.61-.48-.41-1.12-.61-1.94-.61h-8.86v4h-3.93ZM49.76,23.32h-4.43l-3.96-6.11h-7.43v6.11h-3.93v-8.29h18.43c-.61.88-1.54,1.51-2.78,1.87l4.11,6.42Z"/>
    <path class="cls-2" d="M26.88,13.62c-.29-6.4-5.43-11.54-11.83-11.83V0h-1.18v1.79C7.47,2.08,2.33,7.22,2.04,13.62H.25v1.18h4.23c.29,5.05,4.34,9.1,9.39,9.39v1.67h1.18v-1.67c5.05-.29,9.1-4.34,9.39-9.39h4.23v-1.18h-1.79ZM15.05,10.26v-1.32c2.46.27,4.41,2.22,4.68,4.68h-2.28c-.27-1.4-1.5-2.46-2.99-2.46s-2.72,1.06-2.99,2.46h-2.27c.27-2.46,2.21-4.41,4.67-4.68v1.32h1.18ZM13.87,4.23v2.28c-3.79.29-6.82,3.31-7.11,7.11h-2.28c.29-5.06,4.34-9.1,9.39-9.39ZM13.87,21.91c-3.79-.29-6.82-3.32-7.11-7.11h2.44c.27,2.46,2.21,4.4,4.67,4.67v2.44ZM14.46,17.26c-1.48,0-2.71-1.06-2.99-2.46h1.73c.21.48.7.81,1.26.81s1.05-.33,1.26-.81h1.73c-.27,1.4-1.5,2.46-2.99,2.46ZM15.05,21.91v-2.44c2.46-.27,4.41-2.21,4.68-4.67h2.43c-.29,3.79-3.31,6.82-7.11,7.11ZM22.16,13.62c-.29-3.8-3.31-6.82-7.11-7.11v-2.28c5.05.29,9.1,4.33,9.39,9.39h-2.28Z"/>
  </g>
</svg>